<svg width="298" height="36" viewBox="0 0 298 36" fill="none" xmlns="http://www.w3.org/2000/svg">
<path d="M18.074 14.312L30.65 31.544C31.386 32.504 32.138 33.24 32.906 33.752C33.674 34.232 34.554 34.488 35.546 34.52V35H31.61C31.258 35 30.666 34.984 29.834 34.952C29.034 34.92 28.122 34.792 27.098 34.568C26.074 34.344 25.034 33.96 23.978 33.416C22.954 32.84 22.058 32.04 21.29 31.016C21.13 30.792 20.81 30.36 20.33 29.72C19.85 29.08 19.29 28.312 18.65 27.416C18.01 26.52 17.338 25.608 16.634 24.68C15.962 23.72 15.322 22.824 14.714 21.992C14.106 21.16 13.61 20.488 13.226 19.976C12.874 19.432 12.698 19.16 12.698 19.16L18.074 14.312ZM30.122 1.736L15.674 18.872L12.698 19.16L25.898 1.736H30.122ZM33.482 1.4V1.832H33.29C32.234 1.832 31.242 2.056 30.314 2.504C29.418 2.92 28.65 3.48 28.01 4.184L24.122 4.088C24.506 3.544 24.57 3.032 24.314 2.552C24.058 2.072 23.61 1.832 22.97 1.832H22.49V1.4H33.29H33.482ZM11.162 1.4V35H3.962V1.4H11.162ZM4.106 31.496V35H0.266V34.52C0.298 34.52 0.394 34.52 0.554 34.52C0.746 34.52 0.858 34.52 0.89 34.52C1.722 34.52 2.426 34.232 3.002 33.656C3.61 33.048 3.93 32.328 3.962 31.496H4.106ZM4.106 4.904H3.962C3.93 4.072 3.61 3.368 3.002 2.792C2.426 2.184 1.722 1.88 0.89 1.88C0.858 1.88 0.746 1.88 0.554 1.88C0.394 1.88 0.298 1.88 0.266 1.88V1.4H4.106V4.904ZM11.018 31.496H11.162C11.194 32.328 11.498 33.048 12.074 33.656C12.682 34.232 13.402 34.52 14.234 34.52C14.266 34.52 14.362 34.52 14.522 34.52C14.714 34.52 14.826 34.52 14.858 34.52V35H11.018V31.496ZM11.018 4.904V1.4H14.858V1.88C14.826 1.88 14.714 1.88 14.522 1.88C14.362 1.88 14.266 1.88 14.234 1.88C13.402 1.88 12.682 2.184 12.074 2.792C11.498 3.368 11.194 4.072 11.162 4.904H11.018ZM52.2901 1.4V35H45.0901V1.4H52.2901ZM64.9621 32.936L66.1141 35H52.1461V32.936H64.9621ZM68.4661 25.16L66.2581 35H56.8501L58.5781 32.936C60.1781 32.936 61.5861 32.632 62.8021 32.024C64.0181 31.384 65.0581 30.488 65.9221 29.336C66.7861 28.152 67.4741 26.76 67.9861 25.16H68.4661ZM45.2341 31.496V35H41.3941V34.52C41.3941 34.52 41.4901 34.52 41.6821 34.52C41.9061 34.52 42.0181 34.52 42.0181 34.52C42.8501 34.52 43.5541 34.232 44.1301 33.656C44.7381 33.048 45.0581 32.328 45.0901 31.496H45.2341ZM45.2341 4.904H45.0901C45.0581 4.072 44.7381 3.368 44.1301 2.792C43.5541 2.184 42.8501 1.88 42.0181 1.88C42.0181 1.88 41.9061 1.88 41.6821 1.88C41.4901 1.88 41.3941 1.88 41.3941 1.88V1.4H45.2341V4.904ZM52.1461 4.904V1.4H55.9861V1.88C55.9541 1.88 55.8421 1.88 55.6501 1.88C55.4581 1.88 55.3621 1.88 55.3621 1.88C54.5301 1.88 53.8101 2.184 53.2021 2.792C52.6261 3.368 52.3221 4.072 52.2901 4.904H52.1461ZM86.4339 1.4V35H79.2339V1.4H86.4339ZM79.3779 31.496V35H75.5379V34.52C75.5379 34.52 75.6339 34.52 75.8259 34.52C76.0499 34.52 76.1619 34.52 76.1619 34.52C76.9939 34.52 77.6979 34.232 78.2739 33.656C78.8819 33.048 79.2019 32.328 79.2339 31.496H79.3779ZM79.3779 4.904H79.2339C79.2019 4.072 78.8819 3.368 78.2739 2.792C77.6979 2.184 76.9939 1.88 76.1619 1.88C76.1619 1.88 76.0499 1.88 75.8259 1.88C75.6339 1.88 75.5379 1.88 75.5379 1.88V1.4H79.3779V4.904ZM86.2899 31.496H86.4339C86.4659 32.328 86.7699 33.048 87.3459 33.656C87.9539 34.232 88.6739 34.52 89.5059 34.52C89.5059 34.52 89.6019 34.52 89.7939 34.52C89.9859 34.52 90.0979 34.52 90.1299 34.52V35H86.2899V31.496ZM86.2899 4.904V1.4H90.1299V1.88C90.0979 1.88 89.9859 1.88 89.7939 1.88C89.6019 1.88 89.5059 1.88 89.5059 1.88C88.6739 1.88 87.9539 2.184 87.3459 2.792C86.7699 3.368 86.4659 4.072 86.4339 4.904H86.2899ZM109.316 1.4H115.076C117.828 1.4 120.052 1.8 121.748 2.6C123.476 3.4 124.756 4.504 125.588 5.912C126.452 7.288 126.916 8.856 126.98 10.616C127.044 12.248 126.772 13.736 126.164 15.08C125.556 16.424 124.724 17.544 123.668 18.44C122.612 19.336 121.396 19.992 120.02 20.408C118.676 20.792 117.268 20.888 115.796 20.696C114.356 20.472 112.948 19.912 111.572 19.016V18.536C111.572 18.536 111.764 18.536 112.148 18.536C112.564 18.536 113.076 18.472 113.684 18.344C114.324 18.216 114.98 17.976 115.652 17.624C116.356 17.272 117.012 16.728 117.62 15.992C118.228 15.256 118.692 14.28 119.012 13.064C119.14 12.648 119.22 12.184 119.252 11.672C119.316 11.128 119.332 10.632 119.3 10.184C119.268 8.136 118.708 6.504 117.62 5.288C116.564 4.04 115.06 3.416 113.108 3.416H109.796C109.796 3.416 109.748 3.256 109.652 2.936C109.588 2.584 109.508 2.248 109.412 1.928C109.348 1.576 109.316 1.4 109.316 1.4ZM109.94 1.4V35H102.74V1.4H109.94ZM102.884 31.496V35H99.0444V34.52C99.0764 34.52 99.1724 34.52 99.3324 34.52C99.5244 34.52 99.6364 34.52 99.6684 34.52C100.5 34.52 101.204 34.232 101.78 33.656C102.388 33.048 102.708 32.328 102.74 31.496H102.884ZM102.884 4.904H102.74C102.74 4.072 102.436 3.368 101.828 2.792C101.22 2.184 100.5 1.88 99.6684 1.88C99.6364 1.88 99.5404 1.88 99.3804 1.88C99.2204 1.88 99.1244 1.88 99.0924 1.88L99.0444 1.4H102.884V4.904ZM109.796 31.496H109.94C109.972 32.328 110.276 33.048 110.852 33.656C111.46 34.232 112.18 34.52 113.012 34.52C113.044 34.52 113.14 34.52 113.3 34.52C113.492 34.52 113.604 34.52 113.636 34.52V35H109.796V31.496ZM145.523 1.4H151.283C154.035 1.4 156.259 1.8 157.955 2.6C159.683 3.4 160.963 4.504 161.795 5.912C162.659 7.288 163.123 8.856 163.187 10.616C163.251 12.248 162.979 13.736 162.371 15.08C161.763 16.424 160.931 17.544 159.875 18.44C158.819 19.336 157.603 19.992 156.227 20.408C154.883 20.792 153.475 20.888 152.003 20.696C150.563 20.472 149.155 19.912 147.779 19.016V18.536C147.779 18.536 147.971 18.536 148.355 18.536C148.771 18.536 149.283 18.472 149.891 18.344C150.531 18.216 151.187 17.976 151.859 17.624C152.563 17.272 153.219 16.728 153.827 15.992C154.435 15.256 154.899 14.28 155.219 13.064C155.347 12.648 155.427 12.184 155.459 11.672C155.523 11.128 155.539 10.632 155.507 10.184C155.475 8.136 154.915 6.504 153.827 5.288C152.771 4.04 151.267 3.416 149.315 3.416H146.003C146.003 3.416 145.955 3.256 145.859 2.936C145.795 2.584 145.715 2.248 145.619 1.928C145.555 1.576 145.523 1.4 145.523 1.4ZM146.147 1.4V35H138.947V1.4H146.147ZM139.091 31.496V35H135.251V34.52C135.283 34.52 135.379 34.52 135.539 34.52C135.731 34.52 135.843 34.52 135.875 34.52C136.707 34.52 137.411 34.232 137.987 33.656C138.595 33.048 138.915 32.328 138.947 31.496H139.091ZM139.091 4.904H138.947C138.947 4.072 138.643 3.368 138.035 2.792C137.427 2.184 136.707 1.88 135.875 1.88C135.843 1.88 135.747 1.88 135.587 1.88C135.427 1.88 135.331 1.88 135.299 1.88L135.251 1.4H139.091V4.904ZM146.003 31.496H146.147C146.179 32.328 146.483 33.048 147.059 33.656C147.667 34.232 148.387 34.52 149.219 34.52C149.251 34.52 149.347 34.52 149.507 34.52C149.699 34.52 149.811 34.52 149.843 34.52V35H146.003V31.496ZM189.647 0.727998C190.927 0.727998 192.175 0.855998 193.391 1.112C194.639 1.368 195.775 1.752 196.799 2.264C197.823 2.744 198.607 3.368 199.151 4.136L197.423 11H196.991C196.991 9.56 196.783 8.216 196.367 6.968C195.951 5.72 195.295 4.712 194.399 3.944C193.535 3.144 192.367 2.744 190.895 2.744C189.295 2.744 187.983 3.272 186.959 4.328C185.967 5.384 185.471 6.728 185.471 8.36C185.471 10.216 186.159 11.992 187.535 13.688C188.943 15.352 190.959 17.336 193.583 19.64C194.255 20.216 195.007 20.888 195.839 21.656C196.703 22.424 197.551 23.16 198.383 23.864C199.247 24.568 199.967 25.176 200.543 25.688C202.271 27.16 203.839 28.504 205.247 29.72C206.655 30.936 207.951 31.96 209.135 32.792C210.319 33.592 211.439 34.152 212.495 34.472V35C211.247 35.128 209.807 35.208 208.175 35.24C206.543 35.304 204.863 35.144 203.135 34.76C201.407 34.376 199.727 33.608 198.095 32.456C197.263 31.848 196.367 31.16 195.407 30.392C194.447 29.624 193.487 28.856 192.527 28.088C191.599 27.288 190.735 26.552 189.935 25.88C189.167 25.208 188.543 24.664 188.063 24.248C186.207 22.648 184.511 21.064 182.975 19.496C181.471 17.928 180.271 16.312 179.375 14.648C178.479 12.984 178.031 11.192 178.031 9.272C178.031 7.8 178.351 6.536 178.991 5.48C179.631 4.392 180.495 3.496 181.583 2.792C182.703 2.088 183.951 1.576 185.327 1.256C186.735 0.903998 188.175 0.727998 189.647 0.727998ZM205.775 18.392C205.839 20.12 205.727 21.816 205.439 23.48C205.151 25.112 204.639 26.648 203.903 28.088C203.199 29.528 202.223 30.808 200.975 31.928C199.759 33.048 198.223 33.928 196.367 34.568C194.543 35.176 192.351 35.48 189.791 35.48C188.351 35.48 186.847 35.368 185.279 35.144C183.711 34.92 182.207 34.568 180.767 34.088C179.327 33.576 178.015 32.904 176.831 32.072C175.679 31.208 174.767 30.168 174.095 28.952C173.423 27.736 173.087 26.296 173.087 24.632C173.087 23.32 173.311 22.184 173.759 21.224C174.207 20.232 174.799 19.384 175.535 18.68C176.303 17.944 177.119 17.352 177.983 16.904C178.847 16.456 179.695 16.104 180.527 15.848C181.391 15.592 182.143 15.448 182.783 15.416L183.695 16.328C183.439 16.584 183.135 16.904 182.783 17.288C182.431 17.672 182.079 18.152 181.727 18.728C181.375 19.304 181.087 20.008 180.863 20.84C180.671 21.64 180.607 22.584 180.671 23.672C180.735 25.272 181.087 26.696 181.727 27.944C182.367 29.16 183.183 30.184 184.175 31.016C185.199 31.816 186.351 32.424 187.631 32.84C188.911 33.256 190.239 33.464 191.615 33.464C193.311 33.464 194.783 33.112 196.031 32.408C197.311 31.672 198.367 30.728 199.199 29.576C200.031 28.424 200.639 27.16 201.023 25.784C201.407 24.408 201.567 23.048 201.503 21.704C201.439 20.36 201.151 19.144 200.639 18.056C200.287 17.288 199.855 16.728 199.343 16.376C198.863 16.024 198.303 15.848 197.663 15.848H196.943V15.368H208.175V15.848H207.503C206.767 15.848 206.287 16.088 206.063 16.568C205.871 17.016 205.775 17.624 205.775 18.392ZM249.965 20.984L250.397 29.24C249.693 30.424 248.749 31.496 247.565 32.456C246.381 33.416 244.909 34.2 243.149 34.808C241.389 35.384 239.309 35.672 236.909 35.672C233.005 35.64 229.581 34.936 226.637 33.56C223.725 32.152 221.469 30.152 219.869 27.56C218.269 24.968 217.469 21.832 217.469 18.152C217.469 14.568 218.253 11.48 219.821 8.888C221.389 6.264 223.629 4.248 226.541 2.84C229.485 1.432 232.989 0.727998 237.053 0.727998C239.613 0.727998 241.901 0.983998 243.917 1.496C245.965 2.008 247.677 2.632 249.053 3.368L249.101 11.576H248.669C247.805 8.408 246.397 6.152 244.445 4.808C242.493 3.432 240.205 2.744 237.581 2.744C235.021 2.744 232.829 3.368 231.005 4.616C229.181 5.864 227.773 7.624 226.781 9.896C225.789 12.168 225.293 14.888 225.293 18.056C225.293 21.224 225.757 23.96 226.685 26.264C227.645 28.568 228.989 30.36 230.717 31.64C232.477 32.92 234.541 33.592 236.909 33.656C239.373 33.656 241.453 33.256 243.149 32.456C244.845 31.656 246.205 30.328 247.229 28.472C248.285 26.616 249.069 24.12 249.581 20.984H249.965ZM278.779 0.727998C282.619 0.727998 285.947 1.448 288.763 2.888C291.611 4.296 293.803 6.296 295.339 8.888C296.907 11.48 297.691 14.584 297.691 18.2C297.691 21.784 296.907 24.888 295.339 27.512C293.803 30.104 291.611 32.12 288.763 33.56C285.947 34.968 282.619 35.672 278.779 35.672C274.939 35.672 271.595 34.968 268.747 33.56C265.931 32.12 263.755 30.104 262.219 27.512C260.683 24.92 259.915 21.816 259.915 18.2C259.915 14.616 260.683 11.528 262.219 8.936C263.755 6.312 265.931 4.296 268.747 2.888C271.595 1.448 274.939 0.727998 278.779 0.727998ZM278.779 33.656C281.051 33.656 283.003 33.032 284.635 31.784C286.267 30.504 287.531 28.712 288.427 26.408C289.323 24.104 289.771 21.368 289.771 18.2C289.771 15.032 289.323 12.296 288.427 9.992C287.531 7.688 286.267 5.912 284.635 4.664C283.003 3.384 281.051 2.744 278.779 2.744C276.539 2.744 274.587 3.384 272.923 4.664C271.291 5.912 270.027 7.688 269.131 9.992C268.235 12.296 267.787 15.032 267.787 18.2C267.787 21.368 268.235 24.104 269.131 26.408C270.027 28.712 271.291 30.504 272.923 31.784C274.587 33.032 276.539 33.656 278.779 33.656Z" fill="white"/>
</svg>
