<svg width="160" height="160" viewBox="0 0 160 160" fill="none" xmlns="http://www.w3.org/2000/svg">
<circle cx="80" cy="80" r="80" fill="#395954"/>
<path d="M92.6026 71.6964C92.3239 71.2897 92.1281 70.832 92.0265 70.3495C91.9249 69.867 91.9195 69.3693 92.0105 68.8847C92.1015 68.4001 92.2871 67.9382 92.5568 67.5254C92.8266 67.1127 93.175 66.7572 93.5823 66.4792L125.298 44.7761C126.119 44.2679 127.105 44.0963 128.05 44.297C128.995 44.4978 129.826 45.0554 130.37 45.8537C130.914 46.652 131.129 47.6294 130.97 48.5823C130.811 49.5351 130.29 50.3898 129.517 50.9683L97.7964 72.6714C97.1748 73.1001 96.4373 73.329 95.6823 73.3277C95.0753 73.3253 94.4779 73.1757 93.9414 72.8915C93.405 72.6074 92.9456 72.1973 92.6026 71.6964ZM130.51 111.582C129.948 112.403 129.084 112.966 128.106 113.149C127.129 113.332 126.118 113.119 125.298 112.557L82.4167 83.2136L62.4901 96.8449C64.0105 100.706 64.055 104.992 62.6152 108.883C61.1754 112.775 58.3522 116 54.685 117.941C51.0179 119.883 46.7639 120.405 42.7358 119.409C38.7078 118.412 35.1882 115.967 32.8494 112.539C30.5106 109.111 29.5167 104.942 30.0576 100.828C30.5985 96.7142 32.6362 92.9436 35.7814 90.237C38.9266 87.5303 42.9588 86.0774 47.1075 86.1558C51.2563 86.2343 55.2307 87.8385 58.2714 90.6621L75.7745 78.6667L58.2479 66.6714C55.2175 69.4804 51.2586 71.0748 47.1272 71.1502C42.9959 71.2255 38.9815 69.7765 35.8507 67.0798C32.7199 64.3832 30.692 60.6278 30.1543 56.5309C29.6166 52.434 30.6068 48.2825 32.9358 44.8693C35.2647 41.4561 38.7692 39.0203 42.7801 38.0271C46.791 37.0338 51.0273 37.5527 54.6799 39.4846C58.3325 41.4165 61.1456 44.6261 62.5819 48.5005C64.0183 52.3749 63.9772 56.6426 62.4667 60.4886L129.498 106.365C129.908 106.641 130.259 106.994 130.532 107.406C130.805 107.817 130.994 108.279 131.088 108.763C131.182 109.248 131.179 109.747 131.08 110.231C130.981 110.714 130.788 111.174 130.51 111.582ZM56.1667 103.042C56.1671 100.873 55.4155 98.7707 54.0399 97.0938C52.6642 95.4169 50.7497 94.2688 48.6225 93.8452C46.4952 93.4217 44.287 93.7488 42.3739 94.7709C40.4608 95.793 38.9613 97.4468 38.1309 99.4505C37.3005 101.454 37.1906 103.684 37.8199 105.76C38.4491 107.835 39.7787 109.629 41.5819 110.834C43.3851 112.039 45.5505 112.582 47.7091 112.37C49.8677 112.157 51.8859 111.203 53.4198 109.67C54.2935 108.802 54.9863 107.769 55.4578 106.631C55.9293 105.493 56.1703 104.273 56.1667 103.042ZM53.4198 60.9152C54.7312 59.6042 55.6244 57.9337 55.9863 56.1151C56.3483 54.2964 56.1628 52.4113 55.4533 50.698C54.7438 48.9848 53.5422 47.5205 52.0004 46.4902C50.4587 45.46 48.646 44.91 46.7917 44.91C44.9373 44.91 43.1247 45.46 41.5829 46.4902C40.0411 47.5205 38.8395 48.9848 38.13 50.698C37.4205 52.4113 37.235 54.2964 37.597 56.1151C37.959 57.9337 38.8521 59.6042 40.1635 60.9152C41.0293 61.7939 42.0611 62.4917 43.199 62.968C44.3369 63.4443 45.5581 63.6895 46.7917 63.6895C48.0252 63.6895 49.2464 63.4443 50.3843 62.968C51.5222 62.4917 52.554 61.7939 53.4198 60.9152Z" fill="#F4F6F6"/>
</svg>
